<svg width="17" height="15" viewBox="0 0 17 15" fill="none" xmlns="http://www.w3.org/2000/svg">
<path d="M2.28223 0.813126H4.19036V0.542084C4.19036 0.398314 4.24748 0.260433 4.34914 0.158773C4.4508 0.0571122 4.58868 0 4.73245 0C4.87622 0 5.0141 0.0571122 5.11576 0.158773C5.21742 0.260433 5.27453 0.398314 5.27453 0.542084V0.813126H10.9881V0.542084C10.9881 0.398314 11.0452 0.260433 11.1469 0.158773C11.2485 0.0571122 11.3864 0 11.5302 0C11.674 0 11.8118 0.0571122 11.9135 0.158773C12.0152 0.260433 12.0723 0.398314 12.0723 0.542084V0.813126H13.9804C14.5852 0.814557 15.1649 1.05546 15.5926 1.48314C16.0202 1.91082 16.2611 2.49047 16.2626 3.0953V12.6035C16.2611 13.2083 16.0202 13.7879 15.5926 14.2156C15.1649 14.6433 14.5852 14.8842 13.9804 14.8856H2.28223C1.6774 14.8842 1.09775 14.6433 0.670071 14.2156C0.24239 13.7879 0.00148773 13.2083 5.53131e-05 12.6035V3.0953C0.00148773 2.49047 0.24239 1.91082 0.670071 1.48314C1.09775 1.05546 1.6774 0.814557 2.28223 0.813126ZM13.9804 1.89729H12.0723V2.16834C12.0723 2.31211 12.0152 2.44999 11.9135 2.55165C11.8118 2.65331 11.674 2.71042 11.5302 2.71042C11.3864 2.71042 11.2485 2.65331 11.1469 2.55165C11.0452 2.44999 10.9881 2.31211 10.9881 2.16834V1.89729H5.27453V2.16834C5.27453 2.31211 5.21742 2.44999 5.11576 2.55165C5.0141 2.65331 4.87622 2.71042 4.73245 2.71042C4.58868 2.71042 4.4508 2.65331 4.34914 2.55165C4.24748 2.44999 4.19036 2.31211 4.19036 2.16834V1.89729H2.28223C1.9645 1.89729 1.65978 2.02351 1.43511 2.24818C1.21044 2.47285 1.08422 2.77757 1.08422 3.0953V4.38004H15.1784V3.0953C15.1784 2.77757 15.0522 2.47285 14.8275 2.24818C14.6028 2.02351 14.2981 1.89729 13.9804 1.89729ZM2.28223 13.8231H13.9804C14.1396 13.8232 14.2971 13.7915 14.4439 13.7299C14.5907 13.6684 14.7237 13.5782 14.8353 13.4646C14.9468 13.3511 15.0346 13.2164 15.0935 13.0686C15.1524 12.9207 15.1813 12.7626 15.1784 12.6035V5.46421H1.08422V12.6035C1.08134 12.7626 1.1102 12.9207 1.16912 13.0686C1.22803 13.2164 1.31582 13.3511 1.42735 13.4646C1.53889 13.5782 1.67193 13.6684 1.81871 13.7299C1.96549 13.7915 2.12306 13.8232 2.28223 13.8231Z" fill="#202740"/>
</svg>
