<svg width="18" height="17" viewBox="0 0 18 17" fill="none" xmlns="http://www.w3.org/2000/svg">
<path fill-rule="evenodd" clip-rule="evenodd" d="M10.5972 15.5925C10.0818 15.6958 9.54746 15.7504 9 15.7504C4.75946 15.7504 1.31707 12.4843 1.31707 8.46104C1.31707 8.11615 1.02205 7.83624 0.658537 7.83624C0.295024 7.83624 0 8.11615 0 8.46104C0 13.1737 4.03288 17 9 17C9.64098 17 10.2666 16.9363 10.8698 16.8151C11.2254 16.7434 11.4533 16.4119 11.3778 16.0745C11.3027 15.7371 10.9528 15.5209 10.5972 15.5925ZM10.0822 1.24333C13.8108 1.74276 16.6829 4.78638 16.6829 8.46104C16.6829 11.0602 15.2456 13.3437 13.0851 14.6345C12.7774 14.8182 12.6852 15.2043 12.8788 15.4959C13.0724 15.7879 13.4794 15.8754 13.7867 15.6917C16.3177 14.1801 18 11.5055 18 8.46104C18 4.15616 14.6344 0.591039 10.2661 0.00622481C9.90615 -0.0420932 9.57292 0.196162 9.522 0.537304C9.47107 0.878862 9.72219 1.19543 10.0822 1.24333ZM1.87024 5.7419C2.69341 3.80293 4.37005 2.27592 6.45761 1.58072C6.80093 1.46659 6.98137 1.10963 6.86108 0.784316C6.74078 0.459003 6.36454 0.287388 6.02166 0.401518C3.57629 1.21584 1.61254 3.00445 0.648441 5.27498C0.512783 5.59487 0.676097 5.95934 1.01327 6.08805C1.35044 6.21718 1.73414 6.0618 1.87024 5.7419Z" fill="#202740"/>
</svg>
