<svg width="20" height="20" viewBox="0 0 20 20" fill="none" xmlns="http://www.w3.org/2000/svg">
<path d="M12.5926 2.22222C13.0017 2.22222 13.3333 1.89058 13.3333 1.48148C13.3333 1.07238 13.0017 0.74074 12.5926 0.74074H9.58498C7.77105 0.740731 6.34924 0.740731 5.22121 0.862943C4.07006 0.987664 3.13734 1.24674 2.34098 1.82533C1.85885 2.17561 1.43487 2.59959 1.08459 3.08171C0.505995 3.87808 0.246923 4.8108 0.122202 5.96195C-9.75749e-06 7.08998 -9.70131e-06 8.5118 1.75222e-07 10.3257V10.415C-9.70131e-06 12.2289 -9.75749e-06 13.6508 0.122202 14.7788C0.246923 15.93 0.505995 16.8626 1.08459 17.659C1.43487 18.1411 1.85885 18.5651 2.34097 18.9153C3.13734 19.494 4.07006 19.7531 5.22121 19.8778C6.34922 20 7.77106 20 9.58488 20H9.67436C11.4882 20 12.91 20 14.038 19.8778C15.1892 19.7531 16.1219 19.494 16.9183 18.9153C17.4004 18.5651 17.8244 18.1411 18.1746 17.659C18.7533 16.8626 19.0123 15.93 19.1371 14.7788C19.2592 13.6508 19.2592 12.2289 19.2592 10.4151V7.4074C19.2592 6.99831 18.9276 6.66666 18.5185 6.66666C18.1094 6.66666 17.7778 6.99831 17.7778 7.4074V10.3704C17.7778 12.2386 17.7768 13.5802 17.6642 14.6192C17.5531 15.6443 17.3406 16.2865 16.9761 16.7882C16.7172 17.1446 16.4038 17.458 16.0475 17.7168C15.5458 18.0814 14.9036 18.2938 13.8785 18.4049C12.8395 18.5175 11.4979 18.5185 9.62962 18.5185C7.76138 18.5185 6.41974 18.5175 5.38078 18.4049C4.35568 18.2938 3.7135 18.0814 3.21176 17.7168C2.85542 17.458 2.54204 17.1446 2.28314 16.7882C1.91861 16.2865 1.70612 15.6443 1.59506 14.6192C1.4825 13.5802 1.48148 12.2386 1.48148 10.3704C1.48148 8.50212 1.4825 7.16048 1.59506 6.12153C1.70612 5.09642 1.91861 4.45424 2.28314 3.9525C2.54204 3.59616 2.85542 3.28278 3.21176 3.02388C3.7135 2.65935 4.35568 2.44686 5.38079 2.3358C6.41974 2.22324 7.76138 2.22222 9.62962 2.22222H12.5926Z" fill="white"/>
<path d="M4.02631 12.866C3.84614 13.2333 3.99783 13.6771 4.36512 13.8573C4.73241 14.0374 5.17621 13.8857 5.35638 13.5184L6.79869 10.5782C7.24573 9.66676 8.55969 9.7113 8.94398 10.6509C9.81233 12.7733 12.7806 12.8739 13.7906 10.815L15.233 7.87472C15.4131 7.50742 15.2614 7.06362 14.8941 6.88346C14.5268 6.70329 14.083 6.85499 13.9028 7.22227L12.4605 10.1626C12.0135 11.074 10.6995 11.0294 10.3152 10.0899C9.4469 7.96738 6.47855 7.86683 5.46861 9.92572L4.02631 12.866Z" fill="white"/>
<path fill-rule="evenodd" clip-rule="evenodd" d="M15.0618 2.46913C15.0618 3.8328 16.1672 4.93827 17.5309 4.93827C18.8946 4.93827 20 3.8328 20 2.46913C20 1.10547 18.8946 0 17.5309 0C16.1672 0 15.0618 1.10547 15.0618 2.46913ZM16.5432 2.46913C16.5432 3.0146 16.9854 3.45679 17.5309 3.45679C18.0764 3.45679 18.5186 3.0146 18.5186 2.46913C18.5186 1.92367 18.0764 1.48148 17.5309 1.48148C16.9854 1.48148 16.5432 1.92367 16.5432 2.46913Z" fill="white"/>
</svg>
