<svg width="14" height="15" viewBox="0 0 14 15" fill="none" xmlns="http://www.w3.org/2000/svg">
<path d="M8.63636 14L5.36364 11.5625V8.78917L1 3.91417V2.625C1 2.19402 1.1724 1.7807 1.47928 1.47595C1.78616 1.1712 2.20237 1 2.63636 1H11.3636C11.7976 1 12.2138 1.1712 12.5207 1.47595C12.8276 1.7807 13 2.19402 13 2.625V3.91417L8.63636 8.78917V14ZM6.45455 11.0208L7.54545 11.8333V8.3775L11.9091 3.5025V2.625C11.9091 2.48134 11.8516 2.34357 11.7493 2.24198C11.647 2.1404 11.5083 2.08333 11.3636 2.08333H2.63636C2.4917 2.08333 2.35296 2.1404 2.25067 2.24198C2.14838 2.34357 2.09091 2.48134 2.09091 2.625V3.5025L6.45455 8.3775V11.0208Z" fill="#A0AEC0" stroke="#A0AEC0" stroke-width="0.3"/>
</svg>
