<svg width="13" height="13" viewBox="0 0 13 13" fill="none" xmlns="http://www.w3.org/2000/svg">
<g clip-path="url(#clip0_401_460)">
<path d="M13 1.89583C13 2.34542 12.6371 2.70833 12.1875 2.70833H0.8125C0.362917 2.70833 0 2.34542 0 1.89583C0 1.44625 0.362917 1.08333 0.8125 1.08333H12.1875C12.6371 1.08333 13 1.44625 13 1.89583ZM3.52083 10.8333H0.8125C0.362917 10.8333 0 11.1962 0 11.6458C0 12.0954 0.362917 12.4583 0.8125 12.4583H3.52083C3.97042 12.4583 4.33333 12.0954 4.33333 11.6458C4.33333 11.1962 3.97042 10.8333 3.52083 10.8333ZM7.85417 5.95833H0.8125C0.362917 5.95833 0 6.32125 0 6.77083C0 7.22042 0.362917 7.58333 0.8125 7.58333H7.85417C8.30375 7.58333 8.66667 7.22042 8.66667 6.77083C8.66667 6.32125 8.30375 5.95833 7.85417 5.95833Z" fill="#A0AEC0"/>
</g>
<defs>
<clipPath id="clip0_401_460">
<rect width="13" height="13" fill="white"/>
</clipPath>
</defs>
</svg>
